# Tiled2Unity generated file. Do not modify by hand.
# Wavefront file for 'Level5_rpg_mesh_0005.obj'

# Vertices (Count = 32)
v -15.04 -2.88 0
v -15.36 -2.88 0
v -15.36 -2.56 0
v -15.04 -2.56 0
v -15.36 -2.88 0
v -15.68 -2.88 0
v -15.68 -2.56 0
v -15.36 -2.56 0
v -7.36 -4.8 0
v -7.68 -4.8 0
v -7.68 -4.48 0
v -7.36 -4.48 0
v -7.68 -4.8 0
v -8 -4.8 0
v -8 -4.48 0
v -7.68 -4.48 0
v -15.04 -5.44 0
v -15.36 -5.44 0
v -15.36 -5.12 0
v -15.04 -5.12 0
v -15.36 -5.44 0
v -15.68 -5.44 0
v -15.68 -5.12 0
v -15.36 -5.12 0
v -9.92 -6.4 0
v -10.24 -6.4 0
v -10.24 -6.08 0
v -9.92 -6.08 0
v -10.24 -6.4 0
v -10.56 -6.4 0
v -10.56 -6.08 0
v -10.24 -6.08 0

# Texture cooridinates (Count = 4)
vt 0.3334554 0.1667888
vt 0.6665446 0.1667888
vt 0.6665446 0.3332112
vt 0.3334554 0.3332112

# Normal
vn 0 0 -1

# Mesh description
g Level5_rpg_mesh_0005

# Faces
f 1/1/1 2/2/1 3/3/1 4/4/1
f 5/1/1 6/2/1 7/3/1 8/4/1
f 9/1/1 10/2/1 11/3/1 12/4/1
f 13/1/1 14/2/1 15/3/1 16/4/1
f 17/1/1 18/2/1 19/3/1 20/4/1
f 21/1/1 22/2/1 23/3/1 24/4/1
f 25/1/1 26/2/1 27/3/1 28/4/1
f 29/1/1 30/2/1 31/3/1 32/4/1

