# Tiled2Unity generated file. Do not modify by hand.
# Wavefront file for 'Level3_rpg_mesh_0002.obj'

# Vertices (Count = 524)
v -0.32 -1.6 0
v -0.64 -1.6 0
v -0.64 -1.28 0
v -0.32 -1.28 0
v -0.64 -1.6 0
v -0.96 -1.6 0
v -0.96 -1.28 0
v -0.64 -1.28 0
v -0.96 -1.6 0
v -1.28 -1.6 0
v -1.28 -1.28 0
v -0.96 -1.28 0
v -1.28 -1.6 0
v -1.6 -1.6 0
v -1.6 -1.28 0
v -1.28 -1.28 0
v -6.08 -1.6 0
v -6.4 -1.6 0
v -6.4 -1.28 0
v -6.08 -1.28 0
v -6.4 -1.6 0
v -6.72 -1.6 0
v -6.72 -1.28 0
v -6.4 -1.28 0
v -6.72 -1.6 0
v -7.04 -1.6 0
v -7.04 -1.28 0
v -6.72 -1.28 0
v -7.04 -1.6 0
v -7.36 -1.6 0
v -7.36 -1.28 0
v -7.04 -1.28 0
v -7.36 -1.6 0
v -7.68 -1.6 0
v -7.68 -1.28 0
v -7.36 -1.28 0
v -8 -1.6 0
v -8.32 -1.6 0
v -8.32 -1.28 0
v -8 -1.28 0
v -8.32 -1.6 0
v -8.639999 -1.6 0
v -8.639999 -1.28 0
v -8.32 -1.28 0
v -10.24 -1.6 0
v -10.56 -1.6 0
v -10.56 -1.28 0
v -10.24 -1.28 0
v -10.56 -1.6 0
v -10.88 -1.6 0
v -10.88 -1.28 0
v -10.56 -1.28 0
v -11.52 -1.92 0
v -11.84 -1.92 0
v -11.84 -1.6 0
v -11.52 -1.6 0
v -11.84 -1.92 0
v -12.16 -1.92 0
v -12.16 -1.6 0
v -11.84 -1.6 0
v -12.16 -2.24 0
v -12.48 -2.24 0
v -12.48 -1.92 0
v -12.16 -1.92 0
v -12.48 -2.24 0
v -12.8 -2.24 0
v -12.8 -1.92 0
v -12.48 -1.92 0
v -12.8 -2.24 0
v -13.12 -2.24 0
v -13.12 -1.92 0
v -12.8 -1.92 0
v -13.12 -2.24 0
v -13.44 -2.24 0
v -13.44 -1.92 0
v -13.12 -1.92 0
v -13.76 -2.24 0
v -14.08 -2.24 0
v -14.08 -1.92 0
v -13.76 -1.92 0
v -14.08 -2.24 0
v -14.4 -2.24 0
v -14.4 -1.92 0
v -14.08 -1.92 0
v -14.4 -2.24 0
v -14.72 -2.24 0
v -14.72 -1.92 0
v -14.4 -1.92 0
v -14.72 -2.24 0
v -15.04 -2.24 0
v -15.04 -1.92 0
v -14.72 -1.92 0
v -15.68 -2.24 0
v -16 -2.24 0
v -16 -1.92 0
v -15.68 -1.92 0
v -16 -2.24 0
v -16.32 -2.24 0
v -16.32 -1.92 0
v -16 -1.92 0
v 0 -2.88 0
v -0.32 -2.88 0
v -0.32 -2.56 0
v 0 -2.56 0
v -3.2 -2.88 0
v -3.52 -2.88 0
v -3.52 -2.56 0
v -3.2 -2.56 0
v -3.52 -2.88 0
v -3.84 -2.88 0
v -3.84 -2.56 0
v -3.52 -2.56 0
v -3.84 -2.88 0
v -4.16 -2.88 0
v -4.16 -2.56 0
v -3.84 -2.56 0
v -4.16 -2.88 0
v -4.48 -2.88 0
v -4.48 -2.56 0
v -4.16 -2.56 0
v -4.48 -2.88 0
v -4.8 -2.88 0
v -4.8 -2.56 0
v -4.48 -2.56 0
v -7.36 -3.2 0
v -7.68 -3.2 0
v -7.68 -2.88 0
v -7.36 -2.88 0
v -7.68 -3.2 0
v -8 -3.2 0
v -8 -2.88 0
v -7.68 -2.88 0
v -8 -3.2 0
v -8.32 -3.2 0
v -8.32 -2.88 0
v -8 -2.88 0
v -8.32 -3.2 0
v -8.639999 -3.2 0
v -8.639999 -2.88 0
v -8.32 -2.88 0
v -8.639999 -3.2 0
v -8.96 -3.2 0
v -8.96 -2.88 0
v -8.639999 -2.88 0
v -5.76 -3.52 0
v -6.08 -3.52 0
v -6.08 -3.2 0
v -5.76 -3.2 0
v -6.08 -3.52 0
v -6.4 -3.52 0
v -6.4 -3.2 0
v -6.08 -3.2 0
v -6.4 -3.52 0
v -6.72 -3.52 0
v -6.72 -3.2 0
v -6.4 -3.2 0
v -6.72 -3.52 0
v -7.04 -3.52 0
v -7.04 -3.2 0
v -6.72 -3.2 0
v -7.04 -3.52 0
v -7.36 -3.52 0
v -7.36 -3.2 0
v -7.04 -3.2 0
v -7.36 -3.52 0
v -7.68 -3.52 0
v -7.68 -3.2 0
v -7.36 -3.2 0
v -8.639999 -3.52 0
v -8.96 -3.52 0
v -8.96 -3.2 0
v -8.639999 -3.2 0
v -12.16 -3.84 0
v -12.48 -3.84 0
v -12.48 -3.52 0
v -12.16 -3.52 0
v -12.48 -3.84 0
v -12.8 -3.84 0
v -12.8 -3.52 0
v -12.48 -3.52 0
v -0.32 -4.16 0
v -0.64 -4.16 0
v -0.64 -3.84 0
v -0.32 -3.84 0
v -0.64 -4.16 0
v -0.96 -4.16 0
v -0.96 -3.84 0
v -0.64 -3.84 0
v -0.96 -4.16 0
v -1.28 -4.16 0
v -1.28 -3.84 0
v -0.96 -3.84 0
v -1.28 -4.16 0
v -1.6 -4.16 0
v -1.6 -3.84 0
v -1.28 -3.84 0
v -2.88 -4.16 0
v -3.2 -4.16 0
v -3.2 -3.84 0
v -2.88 -3.84 0
v -10.24 -4.16 0
v -10.56 -4.16 0
v -10.56 -3.84 0
v -10.24 -3.84 0
v -10.56 -4.16 0
v -10.88 -4.16 0
v -10.88 -3.84 0
v -10.56 -3.84 0
v -10.88 -4.16 0
v -11.2 -4.16 0
v -11.2 -3.84 0
v -10.88 -3.84 0
v -11.2 -4.16 0
v -11.52 -4.16 0
v -11.52 -3.84 0
v -11.2 -3.84 0
v -11.52 -4.16 0
v -11.84 -4.16 0
v -11.84 -3.84 0
v -11.52 -3.84 0
v -11.84 -4.16 0
v -12.16 -4.16 0
v -12.16 -3.84 0
v -11.84 -3.84 0
v -12.16 -4.16 0
v -12.48 -4.16 0
v -12.48 -3.84 0
v -12.16 -3.84 0
v -6.08 -4.48 0
v -6.4 -4.48 0
v -6.4 -4.16 0
v -6.08 -4.16 0
v -6.4 -4.48 0
v -6.72 -4.48 0
v -6.72 -4.16 0
v -6.4 -4.16 0
v -8 -4.48 0
v -8.32 -4.48 0
v -8.32 -4.16 0
v -8 -4.16 0
v -5.76 -4.8 0
v -6.08 -4.8 0
v -6.08 -4.48 0
v -5.76 -4.48 0
v -6.08 -4.8 0
v -6.4 -4.8 0
v -6.4 -4.48 0
v -6.08 -4.48 0
v -5.44 -5.12 0
v -5.76 -5.12 0
v -5.76 -4.8 0
v -5.44 -4.8 0
v -5.76 -5.12 0
v -6.08 -5.12 0
v -6.08 -4.8 0
v -5.76 -4.8 0
v -5.44 -5.44 0
v -5.76 -5.44 0
v -5.76 -5.12 0
v -5.44 -5.12 0
v -5.12 -5.76 0
v -5.44 -5.76 0
v -5.44 -5.44 0
v -5.12 -5.44 0
v -2.88 -6.08 0
v -3.2 -6.08 0
v -3.2 -5.76 0
v -2.88 -5.76 0
v -3.2 -6.08 0
v -3.52 -6.08 0
v -3.52 -5.76 0
v -3.2 -5.76 0
v -4.16 -6.08 0
v -4.48 -6.08 0
v -4.48 -5.76 0
v -4.16 -5.76 0
v -4.48 -6.08 0
v -4.8 -6.08 0
v -4.8 -5.76 0
v -4.48 -5.76 0
v -4.8 -6.08 0
v -5.12 -6.08 0
v -5.12 -5.76 0
v -4.8 -5.76 0
v -5.12 -6.08 0
v -5.44 -6.08 0
v -5.44 -5.76 0
v -5.12 -5.76 0
v -10.88 -6.08 0
v -11.2 -6.08 0
v -11.2 -5.76 0
v -10.88 -5.76 0
v -11.2 -6.08 0
v -11.52 -6.08 0
v -11.52 -5.76 0
v -11.2 -5.76 0
v -12.16 -6.08 0
v -12.48 -6.08 0
v -12.48 -5.76 0
v -12.16 -5.76 0
v -12.48 -6.08 0
v -12.8 -6.08 0
v -12.8 -5.76 0
v -12.48 -5.76 0
v -12.8 -6.08 0
v -13.12 -6.08 0
v -13.12 -5.76 0
v -12.8 -5.76 0
v -13.12 -6.08 0
v -13.44 -6.08 0
v -13.44 -5.76 0
v -13.12 -5.76 0
v -13.44 -6.08 0
v -13.76 -6.08 0
v -13.76 -5.76 0
v -13.44 -5.76 0
v -2.88 -6.4 0
v -3.2 -6.4 0
v -3.2 -6.08 0
v -2.88 -6.08 0
v -3.52 -6.4 0
v -3.84 -6.4 0
v -3.84 -6.08 0
v -3.52 -6.08 0
v -3.84 -6.4 0
v -4.16 -6.4 0
v -4.16 -6.08 0
v -3.84 -6.08 0
v -4.16 -6.4 0
v -4.48 -6.4 0
v -4.48 -6.08 0
v -4.16 -6.08 0
v -9.599999 -6.4 0
v -9.92 -6.4 0
v -9.92 -6.08 0
v -9.599999 -6.08 0
v -9.92 -6.4 0
v -10.24 -6.4 0
v -10.24 -6.08 0
v -9.92 -6.08 0
v -10.24 -6.4 0
v -10.56 -6.4 0
v -10.56 -6.08 0
v -10.24 -6.08 0
v -10.56 -6.4 0
v -10.88 -6.4 0
v -10.88 -6.08 0
v -10.56 -6.08 0
v -10.88 -6.4 0
v -11.2 -6.4 0
v -11.2 -6.08 0
v -10.88 -6.08 0
v -3.2 -6.72 0
v -3.52 -6.72 0
v -3.52 -6.4 0
v -3.2 -6.4 0
v -3.2 -7.04 0
v -3.52 -7.04 0
v -3.52 -6.72 0
v -3.2 -6.72 0
v -5.12 -7.04 0
v -5.44 -7.04 0
v -5.44 -6.72 0
v -5.12 -6.72 0
v -5.44 -7.04 0
v -5.76 -7.04 0
v -5.76 -6.72 0
v -5.44 -6.72 0
v -5.76 -7.04 0
v -6.08 -7.04 0
v -6.08 -6.72 0
v -5.76 -6.72 0
v -6.08 -7.04 0
v -6.4 -7.04 0
v -6.4 -6.72 0
v -6.08 -6.72 0
v -6.4 -7.04 0
v -6.72 -7.04 0
v -6.72 -6.72 0
v -6.4 -6.72 0
v -4.48 -7.36 0
v -4.8 -7.36 0
v -4.8 -7.04 0
v -4.48 -7.04 0
v -4.8 -7.36 0
v -5.12 -7.36 0
v -5.12 -7.04 0
v -4.8 -7.04 0
v -2.56 -7.68 0
v -2.88 -7.68 0
v -2.88 -7.36 0
v -2.56 -7.36 0
v -6.08 -7.68 0
v -6.4 -7.68 0
v -6.4 -7.36 0
v -6.08 -7.36 0
v -6.4 -7.68 0
v -6.72 -7.68 0
v -6.72 -7.36 0
v -6.4 -7.36 0
v -8.32 -7.68 0
v -8.639999 -7.68 0
v -8.639999 -7.36 0
v -8.32 -7.36 0
v -8.639999 -7.68 0
v -8.96 -7.68 0
v -8.96 -7.36 0
v -8.639999 -7.36 0
v -8.96 -7.68 0
v -9.28 -7.68 0
v -9.28 -7.36 0
v -8.96 -7.36 0
v -9.28 -7.68 0
v -9.599999 -7.68 0
v -9.599999 -7.36 0
v -9.28 -7.36 0
v -9.599999 -7.68 0
v -9.92 -7.68 0
v -9.92 -7.36 0
v -9.599999 -7.36 0
v -10.56 -7.68 0
v -10.88 -7.68 0
v -10.88 -7.36 0
v -10.56 -7.36 0
v -10.88 -7.68 0
v -11.2 -7.68 0
v -11.2 -7.36 0
v -10.88 -7.36 0
v -11.2 -7.68 0
v -11.52 -7.68 0
v -11.52 -7.36 0
v -11.2 -7.36 0
v -11.52 -7.68 0
v -11.84 -7.68 0
v -11.84 -7.36 0
v -11.52 -7.36 0
v -6.08 -8 0
v -6.4 -8 0
v -6.4 -7.68 0
v -6.08 -7.68 0
v -13.76 -8 0
v -14.08 -8 0
v -14.08 -7.68 0
v -13.76 -7.68 0
v -0.32 -9.28 0
v -0.64 -9.28 0
v -0.64 -8.96 0
v -0.32 -8.96 0
v -0.64 -9.28 0
v -0.96 -9.28 0
v -0.96 -8.96 0
v -0.64 -8.96 0
v -0.64 -9.599999 0
v -0.96 -9.599999 0
v -0.96 -9.28 0
v -0.64 -9.28 0
v -0.96 -9.599999 0
v -1.28 -9.599999 0
v -1.28 -9.28 0
v -0.96 -9.28 0
v -5.12 -9.599999 0
v -5.44 -9.599999 0
v -5.44 -9.28 0
v -5.12 -9.28 0
v -5.44 -9.599999 0
v -5.76 -9.599999 0
v -5.76 -9.28 0
v -5.44 -9.28 0
v -5.76 -9.599999 0
v -6.08 -9.599999 0
v -6.08 -9.28 0
v -5.76 -9.28 0
v -6.08 -9.599999 0
v -6.4 -9.599999 0
v -6.4 -9.28 0
v -6.08 -9.28 0
v -8 -9.599999 0
v -8.32 -9.599999 0
v -8.32 -9.28 0
v -8 -9.28 0
v -8.32 -9.599999 0
v -8.639999 -9.599999 0
v -8.639999 -9.28 0
v -8.32 -9.28 0
v -8.639999 -9.599999 0
v -8.96 -9.599999 0
v -8.96 -9.28 0
v -8.639999 -9.28 0
v -8.96 -9.599999 0
v -9.28 -9.599999 0
v -9.28 -9.28 0
v -8.96 -9.28 0
v -9.28 -9.599999 0
v -9.599999 -9.599999 0
v -9.599999 -9.28 0
v -9.28 -9.28 0
v -9.599999 -9.599999 0
v -9.92 -9.599999 0
v -9.92 -9.28 0
v -9.599999 -9.28 0
v -12.8 -9.599999 0
v -13.12 -9.599999 0
v -13.12 -9.28 0
v -12.8 -9.28 0
v -13.12 -9.599999 0
v -13.44 -9.599999 0
v -13.44 -9.28 0
v -13.12 -9.28 0
v -13.44 -9.599999 0
v -13.76 -9.599999 0
v -13.76 -9.28 0
v -13.44 -9.28 0
v -13.76 -9.599999 0
v -14.08 -9.599999 0
v -14.08 -9.28 0
v -13.76 -9.28 0
v -14.08 -9.599999 0
v -14.4 -9.599999 0
v -14.4 -9.28 0
v -14.08 -9.28 0
v -14.4 -9.599999 0
v -14.72 -9.599999 0
v -14.72 -9.28 0
v -14.4 -9.28 0

# Texture cooridinates (Count = 16)
vt 0.3334554 0.1429792
vt 0.6665446 0.1429792
vt 0.6665446 0.2855922
vt 0.3334554 0.2855922
vt 0.6667888 0.1429792
vt 0.9998779 0.1429792
vt 0.9998779 0.2855922
vt 0.6667888 0.2855922
vt 0.3334554 0.0001220703
vt 0.6665446 0.0001220703
vt 0.6665446 0.1427351
vt 0.3334554 0.1427351
vt 0.6667888 0.0001220703
vt 0.9998779 0.0001220703
vt 0.9998779 0.1427351
vt 0.6667888 0.1427351

# Normal
vn 0 0 -1

# Mesh description
g Level3_rpg_mesh_0002

# Faces
f 1/1/1 2/2/1 3/3/1 4/4/1
f 5/5/1 6/6/1 7/7/1 8/8/1
f 9/9/1 10/10/1 11/11/1 12/12/1
f 13/1/1 14/2/1 15/3/1 16/4/1
f 17/1/1 18/2/1 19/3/1 20/4/1
f 21/9/1 22/10/1 23/11/1 24/12/1
f 25/1/1 26/2/1 27/3/1 28/4/1
f 29/5/1 30/6/1 31/7/1 32/8/1
f 33/13/1 34/14/1 35/15/1 36/16/1
f 37/9/1 38/10/1 39/11/1 40/12/1
f 41/5/1 42/6/1 43/7/1 44/8/1
f 45/1/1 46/2/1 47/3/1 48/4/1
f 49/9/1 50/10/1 51/11/1 52/12/1
f 53/9/1 54/10/1 55/11/1 56/12/1
f 57/9/1 58/10/1 59/11/1 60/12/1
f 61/5/1 62/6/1 63/7/1 64/8/1
f 65/9/1 66/10/1 67/11/1 68/12/1
f 69/9/1 70/10/1 71/11/1 72/12/1
f 73/13/1 74/14/1 75/15/1 76/16/1
f 77/9/1 78/10/1 79/11/1 80/12/1
f 81/9/1 82/10/1 83/11/1 84/12/1
f 85/13/1 86/14/1 87/15/1 88/16/1
f 89/5/1 90/6/1 91/7/1 92/8/1
f 93/13/1 94/14/1 95/15/1 96/16/1
f 97/1/1 98/2/1 99/3/1 100/4/1
f 101/1/1 102/2/1 103/3/1 104/4/1
f 105/5/1 106/6/1 107/7/1 108/8/1
f 109/13/1 110/14/1 111/15/1 112/16/1
f 113/1/1 114/2/1 115/3/1 116/4/1
f 117/5/1 118/6/1 119/7/1 120/8/1
f 121/5/1 122/6/1 123/7/1 124/8/1
f 125/5/1 126/6/1 127/7/1 128/8/1
f 129/5/1 130/6/1 131/7/1 132/8/1
f 133/13/1 134/14/1 135/15/1 136/16/1
f 137/5/1 138/6/1 139/7/1 140/8/1
f 141/13/1 142/14/1 143/15/1 144/16/1
f 145/1/1 146/2/1 147/3/1 148/4/1
f 149/13/1 150/14/1 151/15/1 152/16/1
f 153/5/1 154/6/1 155/7/1 156/8/1
f 157/5/1 158/6/1 159/7/1 160/8/1
f 161/1/1 162/2/1 163/3/1 164/4/1
f 165/5/1 166/6/1 167/7/1 168/8/1
f 169/1/1 170/2/1 171/3/1 172/4/1
f 173/5/1 174/6/1 175/7/1 176/8/1
f 177/5/1 178/6/1 179/7/1 180/8/1
f 181/5/1 182/6/1 183/7/1 184/8/1
f 185/1/1 186/2/1 187/3/1 188/4/1
f 189/1/1 190/2/1 191/3/1 192/4/1
f 193/1/1 194/2/1 195/3/1 196/4/1
f 197/9/1 198/10/1 199/11/1 200/12/1
f 201/5/1 202/6/1 203/7/1 204/8/1
f 205/9/1 206/10/1 207/11/1 208/12/1
f 209/1/1 210/2/1 211/3/1 212/4/1
f 213/1/1 214/2/1 215/3/1 216/4/1
f 217/5/1 218/6/1 219/7/1 220/8/1
f 221/5/1 222/6/1 223/7/1 224/8/1
f 225/9/1 226/10/1 227/11/1 228/12/1
f 229/13/1 230/14/1 231/15/1 232/16/1
f 233/5/1 234/6/1 235/7/1 236/8/1
f 237/5/1 238/6/1 239/7/1 240/8/1
f 241/9/1 242/10/1 243/11/1 244/12/1
f 245/5/1 246/6/1 247/7/1 248/8/1
f 249/5/1 250/6/1 251/7/1 252/8/1
f 253/1/1 254/2/1 255/3/1 256/4/1
f 257/13/1 258/14/1 259/15/1 260/16/1
f 261/5/1 262/6/1 263/7/1 264/8/1
f 265/1/1 266/2/1 267/3/1 268/4/1
f 269/13/1 270/14/1 271/15/1 272/16/1
f 273/1/1 274/2/1 275/3/1 276/4/1
f 277/9/1 278/10/1 279/11/1 280/12/1
f 281/5/1 282/6/1 283/7/1 284/8/1
f 285/5/1 286/6/1 287/7/1 288/8/1
f 289/13/1 290/14/1 291/15/1 292/16/1
f 293/5/1 294/6/1 295/7/1 296/8/1
f 297/5/1 298/6/1 299/7/1 300/8/1
f 301/9/1 302/10/1 303/11/1 304/12/1
f 305/9/1 306/10/1 307/11/1 308/12/1
f 309/5/1 310/6/1 311/7/1 312/8/1
f 313/13/1 314/14/1 315/15/1 316/16/1
f 317/9/1 318/10/1 319/11/1 320/12/1
f 321/13/1 322/14/1 323/15/1 324/16/1
f 325/5/1 326/6/1 327/7/1 328/8/1
f 329/1/1 330/2/1 331/3/1 332/4/1
f 333/1/1 334/2/1 335/3/1 336/4/1
f 337/13/1 338/14/1 339/15/1 340/16/1
f 341/5/1 342/6/1 343/7/1 344/8/1
f 345/5/1 346/6/1 347/7/1 348/8/1
f 349/1/1 350/2/1 351/3/1 352/4/1
f 353/9/1 354/10/1 355/11/1 356/12/1
f 357/5/1 358/6/1 359/7/1 360/8/1
f 361/1/1 362/2/1 363/3/1 364/4/1
f 365/9/1 366/10/1 367/11/1 368/12/1
f 369/9/1 370/10/1 371/11/1 372/12/1
f 373/5/1 374/6/1 375/7/1 376/8/1
f 377/1/1 378/2/1 379/3/1 380/4/1
f 381/5/1 382/6/1 383/7/1 384/8/1
f 385/5/1 386/6/1 387/7/1 388/8/1
f 389/5/1 390/6/1 391/7/1 392/8/1
f 393/9/1 394/10/1 395/11/1 396/12/1
f 397/9/1 398/10/1 399/11/1 400/12/1
f 401/5/1 402/6/1 403/7/1 404/8/1
f 405/13/1 406/14/1 407/15/1 408/16/1
f 409/13/1 410/14/1 411/15/1 412/16/1
f 413/5/1 414/6/1 415/7/1 416/8/1
f 417/1/1 418/2/1 419/3/1 420/4/1
f 421/1/1 422/2/1 423/3/1 424/4/1
f 425/9/1 426/10/1 427/11/1 428/12/1
f 429/5/1 430/6/1 431/7/1 432/8/1
f 433/13/1 434/14/1 435/15/1 436/16/1
f 437/13/1 438/14/1 439/15/1 440/16/1
f 441/13/1 442/14/1 443/15/1 444/16/1
f 445/5/1 446/6/1 447/7/1 448/8/1
f 449/9/1 450/10/1 451/11/1 452/12/1
f 453/5/1 454/6/1 455/7/1 456/8/1
f 457/13/1 458/14/1 459/15/1 460/16/1
f 461/13/1 462/14/1 463/15/1 464/16/1
f 465/1/1 466/2/1 467/3/1 468/4/1
f 469/5/1 470/6/1 471/7/1 472/8/1
f 473/13/1 474/14/1 475/15/1 476/16/1
f 477/13/1 478/14/1 479/15/1 480/16/1
f 481/5/1 482/6/1 483/7/1 484/8/1
f 485/1/1 486/2/1 487/3/1 488/4/1
f 489/5/1 490/6/1 491/7/1 492/8/1
f 493/9/1 494/10/1 495/11/1 496/12/1
f 497/1/1 498/2/1 499/3/1 500/4/1
f 501/13/1 502/14/1 503/15/1 504/16/1
f 505/9/1 506/10/1 507/11/1 508/12/1
f 509/9/1 510/10/1 511/11/1 512/12/1
f 513/5/1 514/6/1 515/7/1 516/8/1
f 517/9/1 518/10/1 519/11/1 520/12/1
f 521/13/1 522/14/1 523/15/1 524/16/1

