# Tiled2Unity generated file. Do not modify by hand.
# Wavefront file for 'Level1_rpg_mesh_0006.obj'

# Vertices (Count = 8)
v -15.36 -9.28 0
v -15.68 -9.28 0
v -15.68 -8.96 0
v -15.36 -8.96 0
v -15.68 -9.28 0
v -16 -9.28 0
v -16 -8.96 0
v -15.68 -8.96 0

# Texture cooridinates (Count = 4)
vt 0.3334554 0.1667888
vt 0.6665446 0.1667888
vt 0.6665446 0.3332112
vt 0.3334554 0.3332112

# Normal
vn 0 0 -1

# Mesh description
g Level1_rpg_mesh_0006

# Faces
f 1/1/1 2/2/1 3/3/1 4/4/1
f 5/1/1 6/2/1 7/3/1 8/4/1

