# Tiled2Unity generated file. Do not modify by hand.
# Wavefront file for 'jungle_lev1_mesh_0003.obj'

# Vertices (Count = 8)
v -512 -128 0
v -576 -128 0
v -576 -64 0
v -512 -64 0
v -256 -256 0
v -320 -256 0
v -320 -192 0
v -256 -192 0

# Texture cooridinates (Count = 4)
vt 0.0001220703 0.0001220703
vt 0.9998779 0.0001220703
vt 0.9998779 0.9998779
vt 0.0001220703 0.9998779

# Normal
vn 0 0 -1

# Mesh description
g jungle_lev1_mesh_0003

# Faces
f 1/1/1 2/2/1 3/3/1 4/4/1
f 5/1/1 6/2/1 7/3/1 8/4/1

